<svg id="Layer_1" enable-background="new 0 0 100 100" height="100" viewBox="0 0 100 100" width="100" xmlns="http://www.w3.org/2000/svg"><g><g><path clip-rule="evenodd" d="m31.5 33.936 36.988.132.006 48.018-36.994-.163z" fill="#94b4ff" fill-rule="evenodd"/><path d="m68.494 83.788c-.002 0-.005 0-.007 0l-36.995-.163c-.936-.005-1.694-.765-1.694-1.702v-47.987c0-.451.18-.886.5-1.204.318-.318.75-.497 1.201-.497h.007l36.987.133c.938.002 1.695.764 1.695 1.701l.006 47.896c.003.04.004.08.004.121.002.94-.753 1.703-1.704 1.702zm-35.292-3.559 33.59.147-.006-44.612-33.584-.121z" fill="#353166"/></g><g><path clip-rule="evenodd" d="m37.981 50.163h3.631v3.469h-3.631z" fill="#d4f1ff" fill-rule="evenodd"/></g><g><path clip-rule="evenodd" d="m44.95 50.163h3.631v3.469h-3.631z" fill="#d4f1ff" fill-rule="evenodd"/></g><g><path clip-rule="evenodd" d="m51.913 50.163h3.638v3.469h-3.638z" fill="#d4f1ff" fill-rule="evenodd"/></g><g><path clip-rule="evenodd" d="m58.881 50.163h3.632v3.469h-3.632z" fill="#d4f1ff" fill-rule="evenodd"/></g><g><path clip-rule="evenodd" d="m72.096 26.998-44.198-.043-.006-15.847 44.204.054z" fill="#b9e34f" fill-rule="evenodd"/><path d="m72.096 28.699c-.001 0-.001 0-.002 0l-44.197-.042c-.938-.001-1.7-.763-1.7-1.701l-.006-15.848c0-.451.178-.885.499-1.204.318-.318.751-.498 1.202-.498h.002l44.204.055c.938.001 1.699.762 1.699 1.701v15.836c0 .451-.18.884-.498 1.203-.32.32-.752.498-1.203.498zm-42.497-3.444 40.795.04v-12.433l-40.8-.05z" fill="#353166"/></g><g><path d="m62.777 35.632c-.939 0-1.701-.761-1.701-1.701v-6.933c0-.941.761-1.702 1.701-1.702s1.702.761 1.702 1.702v6.933c0 .94-.762 1.701-1.702 1.701z" fill="#353166"/></g><g><path d="m38.619 35.614c-.939 0-1.701-.761-1.701-1.702v-6.933c0-.94.761-1.701 1.701-1.701s1.702.761 1.702 1.701v6.933c0 .941-.762 1.702-1.702 1.702z" fill="#353166"/></g><g><path clip-rule="evenodd" d="m93.544 88.892-87.082-.018-.005-6.878 87.087.024z" fill="#617bff" fill-rule="evenodd"/><path d="m93.544 90.594s0 0-.001 0l-87.081-.018c-.938 0-1.7-.761-1.701-1.7l-.006-6.879c0-.451.178-.884.498-1.204.319-.319.751-.499 1.204-.499l87.087.024c.939 0 1.701.762 1.701 1.702v6.872c0 .451-.18.885-.498 1.204-.319.318-.751.498-1.203.498zm-85.381-3.421 83.68.018v-3.47l-83.684-.023z" fill="#353166"/></g><g><path d="m63.766 20.755h-26.436c-.939 0-1.701-.763-1.701-1.702 0-.94.761-1.701 1.701-1.701h26.436c.94 0 1.701.761 1.701 1.701 0 .939-.761 1.702-1.701 1.702z" fill="#353166"/></g><g><path clip-rule="evenodd" d="m31.5 33.936h36.988v9.06h-36.988z" fill="#617bff" fill-rule="evenodd"/><path d="m68.488 44.696h-36.988c-.94 0-1.701-.761-1.701-1.701v-9.06c0-.939.761-1.701 1.701-1.701h36.988c.939 0 1.701.761 1.701 1.701v9.06c0 .94-.761 1.701-1.701 1.701zm-35.286-3.403h33.584v-5.656h-33.584z" fill="#353166"/></g><g><path clip-rule="evenodd" d="m10.697 42.996h20.803v9.059h-20.803z" fill="#617bff" fill-rule="evenodd"/><path d="m31.5 53.756h-20.803c-.94 0-1.702-.762-1.702-1.702v-9.059c0-.94.762-1.702 1.702-1.702h20.803c.94 0 1.702.762 1.702 1.702v9.059c0 .94-.762 1.702-1.702 1.702zm-19.103-3.403h17.401v-5.657h-17.401z" fill="#353166"/></g><g><path clip-rule="evenodd" d="m10.697 52.054h20.803v29.948h-20.803z" fill="#d4f1ff" fill-rule="evenodd"/><path d="m31.5 83.703h-20.803c-.94 0-1.702-.761-1.702-1.701v-29.948c0-.94.762-1.701 1.702-1.701h20.803c.94 0 1.702.761 1.702 1.701v29.948c0 .939-.762 1.701-1.702 1.701zm-19.103-3.403h17.401v-26.544h-17.401z" fill="#353166"/></g><g><path clip-rule="evenodd" d="m68.488 42.996h20.809v9.059h-20.809z" fill="#617bff" fill-rule="evenodd"/><path d="m89.297 53.756h-20.809c-.941 0-1.702-.762-1.702-1.702v-9.059c0-.94.761-1.702 1.702-1.702h20.809c.939 0 1.702.762 1.702 1.702v9.059c.001.94-.762 1.702-1.702 1.702zm-19.108-3.403h17.408v-5.657h-17.408z" fill="#353166"/></g><g><path clip-rule="evenodd" d="m68.488 52.054h20.809v29.948h-20.809z" fill="#d4f1ff" fill-rule="evenodd"/><path d="m89.297 83.703h-20.809c-.941 0-1.702-.761-1.702-1.701v-29.948c0-.94.761-1.701 1.702-1.701h20.809c.939 0 1.702.761 1.702 1.701v29.948c.001.939-.762 1.701-1.702 1.701zm-19.108-3.403h17.408v-26.544h-17.408z" fill="#353166"/></g><g><path d="m21.098 83.703c-.939 0-1.701-.761-1.701-1.701v-29.948c0-.94.761-1.701 1.701-1.701s1.702.761 1.702 1.701v29.948c0 .939-.762 1.701-1.702 1.701z" fill="#353166"/></g><g><path d="m78.896 83.703c-.94 0-1.702-.761-1.702-1.701v-29.948c0-.94.762-1.701 1.702-1.701.939 0 1.701.761 1.701 1.701v29.948c0 .939-.762 1.701-1.701 1.701z" fill="#353166"/></g><g><path clip-rule="evenodd" d="m42.57 60.216h14.847v21.508h-14.847z" fill="#d4f1ff" fill-rule="evenodd"/><path d="m57.417 83.426h-14.847c-.939 0-1.701-.762-1.701-1.702v-21.508c0-.94.761-1.702 1.701-1.702h14.847c.94 0 1.701.761 1.701 1.702v21.508c.001.94-.761 1.702-1.701 1.702zm-13.145-3.403h11.443v-18.106h-11.443z" fill="#353166"/></g></g></svg>